{"title":"Chemistry.2013.720p.Malayalam- WEBHD.H264-N3kr4","uid":10246632,"size":1455361154,"categoryP":"video","categoryS":"hd___movies","magnet":"?xt=urn:btih:0c4f39af034f1d47d7e218c23cd88ac8de9df685&amp;dn=Chemistry.2013.720p.Malayalam-+WEBHD.H264-N3kr4&amp;tr=udp%3A%2F%2Ftracker.openbittorrent.com%3A80&amp;tr=udp%3A%2F%2Fopen.demonii.com%3A1337&amp;tr=udp%3A%2F%2Ftracker.coppersurfer.tk%3A6969&amp;tr=udp%3A%2F%2Fexodus.desync.com%3A6969","seeders":1,"leechers":0,"uploader":"Falcon.G13","files":1,"time":1401302983,"description":" &lt;a href=&quot;http://www.imdb.com/title/tt2338862/?ref_=fn_al_tt_1&quot; rel=&quot;nofollow&quot; target=&quot;_NEW&quot;&gt;http://www.imdb.com/title/tt2338862/?ref_=fn_al_tt_1&lt;/a&gt;\n &lt;a href=&quot;\nhttp://i.imgur.com/iUu4GqY.jpg&quot; rel=&quot;nofollow&quot; target=&quot;_NEW&quot;&gt;\nhttp://i.imgur.com/iUu4GqY.jpg&lt;/a&gt; &lt;a href=&quot;\nhttp://i.imgur.com/SToa1jO.jpg&quot; rel=&quot;nofollow&quot; target=&quot;_NEW&quot;&gt;\nhttp://i.imgur.com/SToa1jO.jpg&lt;/a&gt; &lt;a href=&quot;\nhttp://i.imgur.com/iaSvjZx.jpg&quot; rel=&quot;nofollow&quot; target=&quot;_NEW&quot;&gt;\nhttp://i.imgur.com/iaSvjZx.jpg&lt;/a&gt; &lt;a href=&quot;\nhttp://i.imgur.com/Sh3ragd.jpg&quot; rel=&quot;nofollow&quot; target=&quot;_NEW&quot;&gt;\nhttp://i.imgur.com/Sh3ragd.jpg&lt;/a&gt; &lt;a href=&quot;\nhttp://i.imgur.com/kEYGf5Y.jpg&quot; rel=&quot;nofollow&quot; target=&quot;_NEW&quot;&gt;\nhttp://i.imgur.com/kEYGf5Y.jpg&lt;/a&gt;\n\nGeneral\nComplete name : Chemistry.2013.720p.Malayalam- WEBHD.H264-N3kr4.mp4\nFormat : MPEG-4\nFormat profile : Base Media / Version 2\nCodec ID : mp42\nFile size : 1.36 GiB\nDuration : 1h 56mn\nOverall bit rate mode : Variable\nOverall bit rate : 1 668 Kbps\nEncoded date : UTC 2014-05-26 16:39:38\nTagged date : UTC 2014-05-26 16:39:38\n\nVideo\nID : 1\nFormat : AVC\nFormat/Info : Advanced Video Codec\nFormat profile : &lt;a class=&quot;__cf_email__&quot; href=&quot;/cdn-cgi/l/email-protection&quot; data-cfemail=&quot;3a72535d527a7609140b&quot;&gt;[email&amp;#160;protected]&lt;/a&gt;&lt;script data-cfhash='f9e31' type=&quot;text/javascript&quot;&gt;\n/* &lt;![CDATA[ */!function(){try{var t=&quot;currentScript&quot;in document?document.currentScript:function(){for(var t=document.getElementsByTagName(&quot;script&quot;),e=t.length;e--;)if(t[e].getAttribute(&quot;data-cfhash&quot;))return t[e]}();if(t&amp;&amp;t.previousSibling){var e,r,n,i,c=t.previousSibling,a=c.getAttribute(&quot;data-cfemail&quot;);if(a){for(e=&quot;&quot;,r=parseInt(a.substr(0,2),16),n=2;a.length-n;n+=2)i=parseInt(a.substr(n,2),16)^r,e+=String.fromCharCode(i);e=document.createTextNode(e),c.parentNode.replaceChild(e,c)}t.parentNode.removeChild(t);}}catch(u){}}()/* ]]&gt; */&lt;/script&gt;\nFormat settings, CABAC : Yes\nFormat settings, ReFrames : 1 frame\nCodec ID : avc1\nCodec ID/Info : Advanced Video Coding\nDuration : 1h 56mn\nBit rate : 1 474 Kbps\nMaximum bit rate : 6 257 Kbps\nWidth : 1 280 pixels\nHeight : 720 pixels\nDisplay aspect ratio : 16:9\nFrame rate mode : Constant\nFrame rate : 24.000 fps\nColor space : YUV\nChroma subsampling : 4:2:0\nBit depth : 8 bits\nScan type : Progressive\nBits/(Pixel*Frame) : 0.067\nStream size : 1.20 GiB (88%)\nTagged date : UTC 2014-05-26 16:49:52\n\nAudio\nID : 2\nFormat : AAC\nFormat/Info : Advanced Audio Codec\nFormat profile : LC\nCodec ID : 40\nDuration : 1h 56mn\nBit rate mode : Variable\nBit rate : 192 Kbps\nMaximum bit rate : 201 Kbps\nChannel(s) : 2 channels\nChannel positions : Front: L R\nSampling rate : 44.1 KHz\nCompression mode : Lossy\nStream size : 160 MiB (12%)\n","torrent":{"xt":"urn:btih:0c4f39af034f1d47d7e218c23cd88ac8de9df685","amp;dn":"Chemistry.2013.720p.Malayalam-+WEBHD.H264-N3kr4","amp;tr":["udp%3A%2F%2Ftracker.openbittorrent.com%3A80","udp%3A%2F%2Fopen.demonii.com%3A1337","udp%3A%2F%2Ftracker.coppersurfer.tk%3A6969","udp%3A%2F%2Fexodus.desync.com%3A6969"],"infoHash":"0c4f39af034f1d47d7e218c23cd88ac8de9df685","infoHashBuffer":{"type":"Buffer","data":[12,79,57,175,3,79,29,71,215,226,24,194,60,216,138,200,222,157,246,133]},"announce":[],"urlList":[]}}